<svg width="200" height="200" viewBox="0 0 200 200" xmlns="http://www.w3.org/2000/svg">
  <defs>
    <!-- Gradient for the base green -->
    <linearGradient id="greenGradient" x1="0%" y1="0%" x2="0%" y2="100%">
      <stop offset="0%" style="stop-color:#7ed321;stop-opacity:1" />
      <stop offset="100%" style="stop-color:#5cb85c;stop-opacity:1" />
    </linearGradient>
    
    <!-- Pattern for the crack/vein texture -->
    <pattern id="crackPattern" x="0" y="0" width="40" height="40" patternUnits="userSpaceOnUse">
      <!-- Main crack lines -->
      <path d="M0,20 Q10,15 20,20 T40,20" stroke="#4a7c59" stroke-width="0.5" fill="none" opacity="0.3"/>
      <path d="M20,0 Q15,10 20,20 T20,40" stroke="#4a7c59" stroke-width="0.4" fill="none" opacity="0.3"/>
      <path d="M0,0 Q20,10 40,0" stroke="#4a7c59" stroke-width="0.3" fill="none" opacity="0.2"/>
      <path d="M0,40 Q20,30 40,40" stroke="#4a7c59" stroke-width="0.3" fill="none" opacity="0.2"/>
      
      <!-- Smaller crack details -->
      <path d="M5,5 Q15,8 25,5" stroke="#4a7c59" stroke-width="0.2" fill="none" opacity="0.2"/>
      <path d="M15,35 Q25,32 35,35" stroke="#4a7c59" stroke-width="0.2" fill="none" opacity="0.2"/>
      <path d="M35,5 Q30,15 35,25" stroke="#4a7c59" stroke-width="0.2" fill="none" opacity="0.2"/>
      <path d="M5,25 Q10,35 15,25" stroke="#4a7c59" stroke-width="0.2" fill="none" opacity="0.2"/>
    </pattern>
    
    <!-- Pattern for circular indentations -->
    <pattern id="bubblePattern" x="0" y="0" width="60" height="60" patternUnits="userSpaceOnUse">
      <circle cx="15" cy="15" r="3" fill="#4a7c59" opacity="0.1"/>
      <circle cx="45" cy="25" r="2" fill="#4a7c59" opacity="0.08"/>
      <circle cx="25" cy="45" r="2.5" fill="#4a7c59" opacity="0.1"/>
      <circle cx="50" cy="50" r="1.5" fill="#4a7c59" opacity="0.06"/>
    </pattern>
  </defs>
  
  <!-- Base green background with gradient -->
  <rect width="200" height="200" fill="url(#greenGradient)"/>
  
  <!-- Apply crack texture pattern -->
  <rect width="200" height="200" fill="url(#crackPattern)"/>
  
  <!-- Apply bubble pattern -->
  <rect width="200" height="200" fill="url(#bubblePattern)"/>
  
  <!-- Additional organic texture lines -->
  <g stroke="#4a7c59" stroke-width="0.3" fill="none" opacity="0.15">
    <path d="M0,50 Q50,40 100,50 T200,50"/>
    <path d="M0,100 Q50,90 100,100 T200,100"/>
    <path d="M0,150 Q50,140 100,150 T200,150"/>
    <path d="M50,0 Q40,50 50,100 T50,200"/>
    <path d="M100,0 Q90,50 100,100 T100,200"/>
    <path d="M150,0 Q140,50 150,100 T150,200"/>
  </g>
</svg>

